<svg width="12" height="12" viewBox="0 0 12 12" fill="none" xmlns="http://www.w3.org/2000/svg">
<path d="M6.73293 5.99998L9.84797 2.88484C10.0507 2.68222 10.0507 2.3546 9.84797 2.15197C9.64535 1.94934 9.31773 1.94934 9.1151 2.15197L5.99996 5.26711L2.88492 2.15197C2.68219 1.94934 2.35467 1.94934 2.15204 2.15197C1.94932 2.3546 1.94932 2.68222 2.15204 2.88484L5.26709 5.99998L2.15204 9.11512C1.94932 9.31775 1.94932 9.64537 2.15204 9.848C2.25302 9.94907 2.3858 9.99985 2.51848 9.99985C2.65116 9.99985 2.78384 9.94907 2.88492 9.848L5.99996 6.73286L9.1151 9.848C9.21618 9.94907 9.34886 9.99985 9.48154 9.99985C9.61422 9.99985 9.7469 9.94907 9.84797 9.848C10.0507 9.64537 10.0507 9.31775 9.84797 9.11512L6.73293 5.99998Z" fill="#333333"/>
</svg>
